<mxfile host="Electron" modified="2024-10-26T05:34:12.899Z" agent="Mozilla/5.0 (Windows NT 10.0; Win64; x64) AppleWebKit/537.36 (KHTML, like Gecko) draw.io/21.6.8 Chrome/114.0.5735.289 Electron/25.5.0 Safari/537.36" etag="VSjfJpyB3uNLcHcKoNOQ" version="21.6.8" type="device">
  <diagram name="Page-1" id="929967ad-93f9-6ef4-fab6-5d389245f69c">
    <mxGraphModel dx="1290" dy="621" grid="1" gridSize="10" guides="1" tooltips="1" connect="1" arrows="1" fold="1" page="1" pageScale="1.5" pageWidth="1169" pageHeight="826" background="none" math="0" shadow="0">
      <root>
        <mxCell id="0" style=";html=1;" />
        <mxCell id="1" style=";html=1;" parent="0" />
        <mxCell id="1672d66443f91eb5-23" value="Title" style="text;strokeColor=none;fillColor=none;html=1;fontSize=24;fontStyle=1;verticalAlign=middle;align=center;" parent="1" vertex="1">
          <mxGeometry x="120" y="40" width="1510" height="40" as="geometry" />
        </mxCell>
        <mxCell id="DXjx3u0JwBazgocqrrZL-2" value="&lt;p style=&quot;margin:0px;margin-top:4px;text-align:center;&quot;&gt;&lt;i&gt;&amp;lt;&amp;lt;Interface&amp;gt;&amp;gt;&lt;/i&gt;&lt;br&gt;&lt;b&gt;Aggregate&lt;/b&gt;&lt;/p&gt;&lt;p style=&quot;margin:0px;margin-left:4px;&quot;&gt;&lt;br&gt;&lt;/p&gt;&lt;hr size=&quot;1&quot;&gt;&lt;p style=&quot;margin:0px;margin-left:4px;&quot;&gt;&lt;font style=&quot;font-size: 14px;&quot;&gt;+iterator: void&lt;/font&gt;&lt;br&gt;&lt;/p&gt;" style="verticalAlign=top;align=left;overflow=fill;fontSize=12;fontFamily=Helvetica;html=1;whiteSpace=wrap;" vertex="1" parent="1">
          <mxGeometry x="280" y="460" width="280" height="90" as="geometry" />
        </mxCell>
        <mxCell id="DXjx3u0JwBazgocqrrZL-3" value="&lt;p style=&quot;margin:0px;margin-top:4px;text-align:center;&quot;&gt;&lt;b&gt;BookShelf&lt;/b&gt;&lt;/p&gt;&lt;p style=&quot;margin:0px;margin-left:4px;&quot;&gt;&lt;br&gt;&lt;/p&gt;&lt;hr size=&quot;1&quot;&gt;&lt;p style=&quot;margin:0px;margin-left:4px;&quot;&gt;&lt;br&gt;&lt;/p&gt;&lt;p style=&quot;margin:0px;margin-left:4px;&quot;&gt;+&amp;nbsp;iterator() : Interator&lt;/p&gt;" style="verticalAlign=top;align=left;overflow=fill;fontSize=12;fontFamily=Helvetica;html=1;whiteSpace=wrap;" vertex="1" parent="1">
          <mxGeometry x="280" y="670" width="280" height="100" as="geometry" />
        </mxCell>
        <mxCell id="DXjx3u0JwBazgocqrrZL-4" value="" style="endArrow=block;dashed=1;endFill=0;endSize=12;html=1;rounded=0;entryX=0.48;entryY=1.002;entryDx=0;entryDy=0;entryPerimeter=0;exitX=0.48;exitY=0.001;exitDx=0;exitDy=0;exitPerimeter=0;" edge="1" parent="1" source="DXjx3u0JwBazgocqrrZL-3" target="DXjx3u0JwBazgocqrrZL-2">
          <mxGeometry width="160" relative="1" as="geometry">
            <mxPoint x="580" y="710" as="sourcePoint" />
            <mxPoint x="740" y="710" as="targetPoint" />
          </mxGeometry>
        </mxCell>
        <mxCell id="DXjx3u0JwBazgocqrrZL-13" value="&lt;p style=&quot;margin:0px;margin-top:4px;text-align:center;&quot;&gt;&lt;i&gt;&amp;lt;&amp;lt;Interface&amp;gt;&amp;gt;&lt;/i&gt;&lt;br&gt;&lt;b&gt;Interator&lt;/b&gt;&lt;/p&gt;&lt;p style=&quot;margin:0px;margin-left:4px;&quot;&gt;&lt;br&gt;&lt;/p&gt;&lt;hr size=&quot;1&quot;&gt;&lt;p style=&quot;margin:0px;margin-left:4px;&quot;&gt;&lt;font style=&quot;font-size: 14px;&quot;&gt;+hasNext: boolean&lt;/font&gt;&lt;br&gt;&lt;/p&gt;&lt;p style=&quot;margin:0px;margin-left:4px;&quot;&gt;&lt;font style=&quot;font-size: 14px;&quot;&gt;+next : Object&lt;/font&gt;&lt;/p&gt;" style="verticalAlign=top;align=left;overflow=fill;fontSize=12;fontFamily=Helvetica;html=1;whiteSpace=wrap;" vertex="1" parent="1">
          <mxGeometry x="770" y="455" width="280" height="100" as="geometry" />
        </mxCell>
        <mxCell id="DXjx3u0JwBazgocqrrZL-14" value="" style="endArrow=open;endFill=1;endSize=12;html=1;rounded=0;exitX=1;exitY=0.5;exitDx=0;exitDy=0;entryX=0;entryY=0.5;entryDx=0;entryDy=0;" edge="1" parent="1" source="DXjx3u0JwBazgocqrrZL-2" target="DXjx3u0JwBazgocqrrZL-13">
          <mxGeometry width="160" relative="1" as="geometry">
            <mxPoint x="680" y="610" as="sourcePoint" />
            <mxPoint x="840" y="610" as="targetPoint" />
          </mxGeometry>
        </mxCell>
        <mxCell id="DXjx3u0JwBazgocqrrZL-15" value="&lt;font style=&quot;font-size: 18px;&quot;&gt;Creates&lt;/font&gt;" style="text;html=1;align=center;verticalAlign=middle;resizable=0;points=[];autosize=1;strokeColor=none;fillColor=none;" vertex="1" parent="1">
          <mxGeometry x="610" y="473" width="90" height="40" as="geometry" />
        </mxCell>
        <mxCell id="DXjx3u0JwBazgocqrrZL-17" value="&lt;p style=&quot;margin:0px;margin-top:4px;text-align:center;&quot;&gt;&lt;b&gt;ConcreteIterator&lt;/b&gt;&lt;br&gt;&lt;/p&gt;&lt;p style=&quot;margin:0px;margin-left:4px;&quot;&gt;&lt;br&gt;&lt;/p&gt;&lt;hr size=&quot;1&quot;&gt;&lt;p style=&quot;margin:0px;margin-left:4px;&quot;&gt;+ hasNext&lt;span style=&quot;background-color: initial;&quot;&gt;: boolean&lt;/span&gt;&lt;/p&gt;&lt;p style=&quot;margin:0px;margin-left:4px;&quot;&gt;+&amp;nbsp;next() : Object&lt;/p&gt;" style="verticalAlign=top;align=left;overflow=fill;fontSize=12;fontFamily=Helvetica;html=1;whiteSpace=wrap;" vertex="1" parent="1">
          <mxGeometry x="770" y="670" width="280" height="100" as="geometry" />
        </mxCell>
        <mxCell id="DXjx3u0JwBazgocqrrZL-18" value="" style="endArrow=block;dashed=1;endFill=0;endSize=12;html=1;rounded=0;exitX=0.5;exitY=0;exitDx=0;exitDy=0;entryX=0.5;entryY=1;entryDx=0;entryDy=0;" edge="1" parent="1" source="DXjx3u0JwBazgocqrrZL-17" target="DXjx3u0JwBazgocqrrZL-13">
          <mxGeometry width="160" relative="1" as="geometry">
            <mxPoint x="900" y="610" as="sourcePoint" />
            <mxPoint x="910" y="610" as="targetPoint" />
          </mxGeometry>
        </mxCell>
        <mxCell id="DXjx3u0JwBazgocqrrZL-22" value="1" style="endArrow=open;html=1;endSize=12;startArrow=diamondThin;startSize=14;startFill=0;edgeStyle=orthogonalEdgeStyle;align=left;verticalAlign=bottom;rounded=0;entryX=1.006;entryY=0.463;entryDx=0;entryDy=0;entryPerimeter=0;exitX=-0.013;exitY=0.458;exitDx=0;exitDy=0;exitPerimeter=0;" edge="1" parent="1" source="DXjx3u0JwBazgocqrrZL-17" target="DXjx3u0JwBazgocqrrZL-3">
          <mxGeometry x="-1" y="3" relative="1" as="geometry">
            <mxPoint x="680" y="780" as="sourcePoint" />
            <mxPoint x="840" y="780" as="targetPoint" />
          </mxGeometry>
        </mxCell>
      </root>
    </mxGraphModel>
  </diagram>
</mxfile>
